<?xml version="1.0" encoding="iso-8859-1"?>
<!-- Generator: Adobe Illustrator 19.0.0, SVG Export Plug-In . SVG Version: 6.00 Build 0)  -->
<svg version="1.1" id="Capa_1" xmlns="http://www.w3.org/2000/svg" xmlns:xlink="http://www.w3.org/1999/xlink" x="0px" y="0px"
	 viewBox="0 0 512 512" style="enable-background:new 0 0 512 512;" xml:space="preserve">
<g>
	<g>
		<path d="M255.998,241.379c-16.216,0-29.409-13.193-29.409-29.409c0-16.216,13.193-29.409,29.409-29.409h44.029
			c8.074,0,14.62-6.546,14.62-14.62s-6.546-14.62-14.62-14.62h-29.409v-23.266c0-8.074-6.546-14.62-14.62-14.62
			s-14.62,6.546-14.62,14.62v25.111c-25.289,6.513-44.029,29.511-44.029,56.804c0,32.339,26.31,58.649,58.649,58.649
			c16.217,0,29.409,13.193,29.409,29.409c0,16.216-13.192,29.409-29.409,29.409h-44.029c-8.074,0-14.62,6.546-14.62,14.62
			s6.546,14.62,14.62,14.62h29.409v23.265c0,8.074,6.546,14.62,14.62,14.62s14.62-6.546,14.62-14.62v-25.111
			c25.289-6.513,44.029-29.511,44.029-56.804C314.647,267.69,288.337,241.379,255.998,241.379z"/>
	</g>
</g>
<g>
	<g>
		<path d="M510.161,214.55c-2.578-4.642-7.471-7.523-12.781-7.523h-35.758c-10.367-43.576-34.575-83.102-69.046-112.319
			c-38.082-32.276-86.584-50.052-136.577-50.052c-40.803,0-80.409,11.653-114.536,33.699
			c-33.224,21.462-59.709,51.664-76.592,87.338c-3.454,7.298-0.338,16.015,6.961,19.469c7.299,3.455,16.016,0.338,19.469-6.961
			c29.987-63.363,94.635-104.306,164.702-104.306c82.647,0,153.831,55.027,175.45,133.129h-23.386c-5.31,0-10.204,2.88-12.781,7.523
			c-2.579,4.642-2.437,10.318,0.37,14.826l44.657,71.714c2.67,4.286,7.362,6.892,12.411,6.892c5.049,0,9.742-2.605,12.411-6.892
			l44.656-71.714C512.598,224.867,512.74,219.193,510.161,214.55z"/>
	</g>
</g>
<g>
	<g>
		<path d="M440.396,326.244c-7.312-3.431-16.017-0.286-19.447,7.023c-29.887,63.683-94.633,104.833-164.95,104.833
			c-82.647,0-153.83-55.027-175.45-133.13h23.386c5.31,0,10.203-2.88,12.782-7.523c2.578-4.642,2.437-10.318-0.371-14.826
			l-44.658-71.714c-2.669-4.287-7.361-6.892-12.411-6.892s-9.742,2.605-12.411,6.892L2.21,282.624
			c-2.807,4.508-2.949,10.183-0.371,14.826c2.579,4.642,7.472,7.523,12.782,7.523h35.758
			c10.367,43.576,34.575,83.102,69.047,112.319c38.082,32.276,86.584,50.052,136.577,50.052c40.921,0,80.625-11.717,114.819-33.883
			c33.292-21.582,59.78-51.932,76.599-87.768C450.85,338.382,447.705,329.675,440.396,326.244z"/>
	</g>
</g>
<g>
</g>
<g>
</g>
<g>
</g>
<g>
</g>
<g>
</g>
<g>
</g>
<g>
</g>
<g>
</g>
<g>
</g>
<g>
</g>
<g>
</g>
<g>
</g>
<g>
</g>
<g>
</g>
<g>
</g>
</svg>
