<?xml version="1.0" encoding="iso-8859-1"?>
<!-- Generator: Adobe Illustrator 19.0.0, SVG Export Plug-In . SVG Version: 6.00 Build 0)  -->
<svg version="1.1" id="Capa_1" xmlns="http://www.w3.org/2000/svg" xmlns:xlink="http://www.w3.org/1999/xlink" x="0px" y="0px"
	 viewBox="0 0 511.738 511.738" style="enable-background:new 0 0 511.738 511.738;" xml:space="preserve">
<g>
	<g>
		<g>
			<path d="M365.818,461.905c-35.44,23.666-76.474,37.608-118.996,40.43c5.385,0.441,11.299,0.706,18.008,0.706
				c76.972-0.01,149.537-35.917,196.237-97.103h-35.31C409.027,427.795,388.769,446.711,365.818,461.905z"/>
			<path d="M438.027,388.283h35.31c10.657-16.535,19.226-34.325,25.512-52.966h-35.31
				C457.253,353.957,448.684,371.748,438.027,388.283z"/>
			<path d="M468.924,317.662h35.31c4.434-17.327,6.95-35.089,7.503-52.966h-35.31C475.874,282.573,473.358,300.335,468.924,317.662z
				"/>
			<path d="M476.427,247.041h35.31c-0.553-17.877-3.069-35.639-7.503-52.966h-35.31
				C473.358,211.403,475.874,229.164,476.427,247.041z"/>
			<path d="M463.539,176.421h35.31c-6.286-18.64-14.855-36.431-25.512-52.966h-35.31C448.684,139.99,457.253,157.78,463.539,176.421
				z"/>
			<path d="M425.757,105.8h35.31C414.367,44.613,341.802,8.706,264.83,8.696c-6.709,0-12.535,0.265-17.92,0.706
				c42.494,2.823,83.5,16.765,118.908,40.43C388.769,65.027,409.027,83.942,425.757,105.8z"/>
			<path d="M388.389,252.97c-1.346-73.742-53.238-136.872-125.324-152.467c-10.479-2.22-21.156-3.374-31.868-3.443h-1.236
				c-0.265,0-1.059-0.088-1.324-0.088C141.401,97.431,70.856,168.15,70.614,255.387s69.908,158.347,157.14,159.29h1.324
				c0.265,0,0.53,0.088,0.706,0.088h0.618c11.49-0.055,22.941-1.328,34.163-3.796c1.324-0.353,2.648-0.706,4.149-1.059
				C340.183,391.694,389.735,326.711,388.389,252.97z M335.009,302.832l-14.83,44.138c-1.215,3.595-4.591,6.012-8.386,6.003H152.896
				c-2.726-0.014-5.295-1.28-6.966-3.434s-2.26-4.956-1.596-7.601l16.419-63.117l-17.92,3.354c-2.569,0.513-5.232-0.169-7.239-1.854
				c-2.025-1.674-3.192-4.17-3.178-6.797v-35.31c0.002-4.255,3.05-7.899,7.239-8.651l35.752-6.797l21.892-83.862
				c1.047-3.877,4.547-6.584,8.563-6.621h61.793c2.715-0.008,5.285,1.228,6.974,3.354c1.605,2.147,2.186,4.89,1.589,7.503
				l-15.272,63.647l19.862-3.708c2.586-0.515,5.268,0.158,7.304,1.835c2.036,1.677,3.211,4.179,3.201,6.816v35.31
				c-0.001,4.255-3.05,7.899-7.239,8.651l-36.458,6.797l-6.885,28.69h85.892c2.848-0.013,5.52,1.373,7.15,3.708
				C335.444,297.18,335.905,300.139,335.009,302.832z"/>
			<path d="M222.546,305.48c-1.645-2.128-2.23-4.891-1.589-7.503l10.77-44.844c0.771-3.498,3.546-6.203,7.062-6.885l34.869-6.532
				v-17.302l-22.775,4.237c-2.936,0.566-5.958-0.396-8.027-2.554s-2.902-5.218-2.213-8.127l15.801-66.03h-43.785l-21.539,82.714
				c-0.85,3.336-3.581,5.86-6.974,6.444l-34.074,6.444v17.39l21.186-3.972c2.957-0.583,6.003,0.421,8.033,2.648
				c2.03,2.212,2.825,5.291,2.119,8.21l-17.125,65.501h141.153l8.916-26.483H229.52C226.804,308.842,224.235,307.606,222.546,305.48
				z"/>
			<path d="M286.722,478.236c101.445-26.127,172.338-117.612,172.315-222.367C459.271,129.99,357.866,27.52,231.991,26.44
				c-1.059-0.088-1.589-0.088-2.119-0.088h-0.353C103.248,26.33,0.683,128.326,0.003,254.595s100.78,229.364,227.044,230.703
				c1.412,0.088,1.942,0.088,2.472,0.088c16.986,0.027,33.921-1.839,50.494-5.561C282.309,479.383,284.515,478.765,286.722,478.236z
				 M339.158,435.067L339.158,435.067c-0.427,1.053-1.057,2.012-1.854,2.823c-1.66,1.672-3.911,2.624-6.268,2.651
				c-4.86-0.037-8.79-3.968-8.828-8.828c0.015-0.593,0.072-1.183,0.172-1.767c0.099-0.552,0.279-1.087,0.534-1.586
				c0.191-0.564,0.457-1.099,0.793-1.591c0.327-0.461,0.681-0.903,1.061-1.322c0.417-0.381,0.858-0.735,1.319-1.06
				c0.494-0.334,1.031-0.601,1.595-0.793c0.498-0.257,1.033-0.436,1.586-0.53c1.131-0.267,2.309-0.267,3.44,0
				c0.586,0.081,1.154,0.26,1.681,0.53c0.562,0.192,1.095,0.459,1.586,0.793c0.464,0.326,0.908,0.68,1.328,1.061
				c1.625,1.684,2.542,3.927,2.56,6.268C339.85,432.867,339.61,434.006,339.158,435.067z M381.261,402.847
				c-0.458,1.058-1.117,2.016-1.94,2.823c-2.553,2.47-6.309,3.229-9.621,1.944c-1.059-0.46-2.019-1.12-2.828-1.944
				c-0.85-0.784-1.513-1.749-1.94-2.823c-0.453-1.092-0.693-2.261-0.707-3.444c0.011-2.332,0.966-4.56,2.646-6.177
				c0.784-0.853,1.751-1.517,2.828-1.944c3.309-1.31,7.08-0.548,9.621,1.944c1.66,1.624,2.585,3.855,2.56,6.177
				C381.901,400.581,381.691,401.751,381.261,402.847z M431.847,314.658c-3.447,3.414-9.001,3.414-12.448,0
				c-2.473-2.551-3.231-6.31-1.94-9.621l0,0c0.458-1.058,1.117-2.016,1.94-2.823c3.488-3.313,8.96-3.313,12.448,0
				c0.85,0.784,1.513,1.749,1.94,2.823C435.214,308.334,434.44,312.171,431.847,314.658z M440.675,252.511
				c0.453,1.062,0.693,2.203,0.707,3.358c0.023,2.348-0.9,4.607-2.56,6.267c-1.661,1.661-3.919,2.583-6.267,2.56
				c-0.592-0.02-1.183-0.079-1.767-0.177c-0.552-0.098-1.086-0.277-1.586-0.53c-0.565-0.194-1.101-0.462-1.595-0.797
				c-0.44-0.35-0.879-0.703-1.319-1.056c-1.614-1.691-2.529-3.93-2.56-6.268c0.014-1.155,0.254-2.296,0.707-3.358
				c0.426-1.08,1.055-2.067,1.854-2.909c3.539-3.267,8.995-3.267,12.534,0C439.62,250.444,440.249,251.432,440.675,252.511z
				 M419.399,197.076c3.506-3.267,8.942-3.267,12.448,0c1.683,1.652,2.636,3.909,2.646,6.268c0.01,3.583-2.152,6.814-5.467,8.172
				c-3.315,1.358-7.123,0.57-9.628-1.99c-0.448-0.381-0.835-0.829-1.146-1.328c-0.267-0.44-0.535-0.97-0.793-1.5
				c-0.202-0.543-0.349-1.105-0.44-1.677c-0.149-0.546-0.211-1.112-0.181-1.677C416.813,200.994,417.736,198.735,419.399,197.076
				L419.399,197.076z M405.365,366.213L405.365,366.213c-2.337-0.034-4.575-0.948-6.268-2.56c-0.796-0.863-1.45-1.847-1.94-2.914
				c-0.189-0.518-0.339-1.05-0.448-1.591c-0.143-0.576-0.2-1.17-0.172-1.763c-0.02-1.15,0.191-2.291,0.621-3.358
				c0.488-1.067,1.143-2.049,1.94-2.91c0.829-0.818,1.822-1.451,2.914-1.858c3.264-1.339,7.012-0.609,9.534,1.858
				c0.853,0.815,1.515,1.809,1.94,2.909c0.453,1.062,0.693,2.203,0.707,3.358C414.159,362.247,410.226,366.18,405.365,366.213z
				 M397.158,150.994L397.158,150.994c0.488-1.067,1.143-2.049,1.94-2.91c0.829-0.818,1.822-1.451,2.914-1.858
				c3.26-1.383,7.033-0.648,9.534,1.858c2.535,2.514,3.306,6.308,1.953,9.613s-4.563,5.468-8.134,5.482
				c-2.337-0.035-4.575-0.949-6.268-2.56c-0.796-0.863-1.45-1.847-1.94-2.914c-0.189-0.518-0.339-1.05-0.448-1.591
				c-0.143-0.576-0.201-1.17-0.172-1.763C396.517,153.202,396.728,152.06,397.158,150.994z M364.933,108.886L364.933,108.886
				c0.428-1.074,1.091-2.038,1.94-2.823c2.093-2.05,5.062-2.938,7.937-2.374c2.875,0.564,5.288,2.508,6.451,5.197
				c0.43,1.097,0.64,2.266,0.621,3.444c0.02,1.148-0.191,2.289-0.621,3.353c-0.459,1.058-1.118,2.018-1.94,2.828
				c-2.487,2.593-6.323,3.366-9.621,1.94c-1.077-0.425-2.043-1.088-2.828-1.94c-0.849-0.786-1.512-1.752-1.94-2.828
				c-0.453-1.061-0.693-2.2-0.707-3.353C364.24,111.148,364.48,109.979,364.933,108.886z M322.382,78.343L322.382,78.343
				c0.086-0.584,0.267-1.151,0.534-1.677c0.173-0.543,0.441-1.051,0.793-1.5c0.304-0.506,0.659-0.98,1.06-1.414
				c0.44-0.353,0.879-0.703,1.319-1.056c0.494-0.335,1.03-0.604,1.595-0.797c0.5-0.253,1.034-0.432,1.586-0.53
				c1.14-0.177,2.3-0.177,3.44,0c0.585,0.085,1.153,0.264,1.681,0.53c0.562,0.194,1.095,0.462,1.586,0.797
				c0.44,0.353,0.888,0.703,1.328,1.056c0.353,0.444,0.707,0.884,1.06,1.414c0.348,0.451,0.617,0.958,0.793,1.5
				c0.269,0.525,0.447,1.092,0.526,1.677c0.107,0.553,0.167,1.114,0.181,1.677c-0.014,1.155-0.254,2.295-0.707,3.358
				c-0.406,1.091-1.038,2.084-1.854,2.914c-1.694,1.609-3.932,2.521-6.268,2.556c-2.34-0.015-4.584-0.93-6.268-2.556
				c-1.614-1.693-2.529-3.933-2.56-6.272C322.223,79.457,322.281,78.897,322.382,78.343z M273.39,58.041
				c0.126-0.574,0.305-1.136,0.534-1.677c0.208-0.528,0.474-1.031,0.793-1.5c0.311-0.499,0.698-0.947,1.147-1.328
				c0.784-0.848,1.747-1.511,2.819-1.94c3.311-1.309,7.083-0.55,9.629,1.94c1.656,1.628,2.58,3.859,2.56,6.181
				c0.016,1.177-0.195,2.346-0.621,3.444c-0.492,1.038-1.147,1.991-1.94,2.823c-2.556,2.47-6.315,3.229-9.629,1.944
				c-1.055-0.463-2.011-1.123-2.819-1.944c-0.853-0.781-1.516-1.747-1.94-2.823c-0.449-1.094-0.688-2.262-0.707-3.444
				C273.233,59.155,273.29,58.595,273.39,58.041z M221.399,49.477c0.447-1.068,1.074-2.053,1.853-2.91
				c3.539-3.267,8.995-3.267,12.534,0c0.779,0.857,1.406,1.841,1.854,2.909c0.453,1.062,0.693,2.203,0.707,3.358
				c-0.013,0.592-0.074,1.181-0.181,1.763c-0.093,0.554-0.27,1.091-0.526,1.591c-0.176,0.542-0.445,1.049-0.793,1.5
				c-0.353,0.53-0.707,0.97-1.06,1.414c-1.694,1.61-3.931,2.524-6.267,2.56c-2.34-0.017-4.585-0.933-6.268-2.56
				c-0.401-0.434-0.756-0.908-1.06-1.414c-0.352-0.449-0.62-0.957-0.793-1.5c-0.255-0.501-0.435-1.037-0.535-1.591
				c-0.1-0.583-0.157-1.172-0.172-1.763C220.659,51.675,220.902,50.524,221.399,49.477L221.399,49.477z M170.726,53.537
				L170.726,53.537c0.419-0.409,0.862-0.792,1.328-1.147c0.481-0.299,0.982-0.565,1.5-0.793c0.548-0.205,1.106-0.382,1.672-0.53
				c2.893-0.518,5.858,0.403,7.948,2.47c1.68,1.619,2.634,3.848,2.647,6.181c-0.015,0.592-0.073,1.183-0.172,1.767
				c-0.181,0.53-0.353,1.147-0.534,1.677c-0.267,0.53-0.526,0.97-0.793,1.5c-0.357,0.462-0.74,0.904-1.147,1.323
				c-3.441,3.417-8.997,3.407-12.426-0.022S167.31,56.978,170.726,53.537z M119.882,76.666c0.448-1.07,1.075-2.055,1.854-2.914
				c0.44-0.353,0.879-0.703,1.319-1.056c0.494-0.335,1.03-0.604,1.595-0.797c0.5-0.253,1.034-0.432,1.586-0.53
				c2.905-0.534,5.89,0.352,8.034,2.383c0.779,0.859,1.406,1.844,1.854,2.914c0.453,1.061,0.693,2.2,0.707,3.353
				c-0.019,2.341-0.935,4.586-2.56,6.272c-0.865,0.793-1.848,1.448-2.914,1.94c-1.066,0.426-2.206,0.635-3.353,0.616
				c-2.349,0.025-4.608-0.897-6.269-2.558c-1.661-1.661-2.583-3.921-2.558-6.269C119.143,78.862,119.385,77.713,119.882,76.666z
				 M79.718,106.063L79.718,106.063c3.503-3.267,8.937-3.267,12.44,0c1.677,1.65,2.602,3.916,2.56,6.268
				c0.019,1.147-0.189,2.287-0.612,3.353c-0.462,1.059-1.124,2.019-1.948,2.828c-0.379,0.447-0.823,0.834-1.319,1.147
				c-0.44,0.263-0.974,0.53-1.5,0.793c-0.534,0.177-1.146,0.353-1.681,0.53c-0.552,0.104-1.111,0.163-1.672,0.177
				c-3.57-0.071-6.775-2.206-8.215-5.474c-0.423-1.067-0.631-2.206-0.612-3.353C77.115,109.978,78.041,107.712,79.718,106.063z
				 M45.554,150.994c0.426-1.08,1.055-2.067,1.854-2.909c0.417-0.381,0.858-0.735,1.319-1.06c0.494-0.335,1.03-0.604,1.595-0.797
				c0.524-0.268,1.089-0.446,1.672-0.526c1.134-0.267,2.314-0.267,3.448,0c0.552,0.096,1.086,0.273,1.586,0.526
				c0.562,0.194,1.095,0.462,1.586,0.797c0.464,0.325,0.907,0.68,1.327,1.06c1.611,1.693,2.525,3.931,2.56,6.268
				c-0.018,0.591-0.078,1.18-0.181,1.763c-0.092,0.554-0.269,1.09-0.525,1.59c-0.176,0.542-0.445,1.049-0.793,1.5
				c-0.304,0.506-0.66,0.98-1.061,1.414c-2.526,2.546-6.341,3.312-9.653,1.937c-3.312-1.375-5.463-4.618-5.442-8.204
				C44.856,153.196,45.097,152.055,45.554,150.994z M21.537,263.192c-0.44-0.35-0.879-0.703-1.319-1.056
				c-3.461-3.461-3.461-9.074,0-12.535s9.074-3.461,12.535,0c2.546,2.525,3.312,6.341,1.937,9.653
				c-1.375,3.312-4.618,5.463-8.204,5.442c-0.593-0.016-1.183-0.075-1.767-0.177c-0.552-0.098-1.086-0.277-1.586-0.53
				C22.567,263.796,22.031,263.528,21.537,263.192L21.537,263.192z M39.64,314.658c-1.627,1.657-3.859,2.581-6.181,2.56
				c-1.179,0.025-2.351-0.184-3.448-0.616c-1.055-0.462-2.012-1.122-2.819-1.944c-2.587-2.489-3.363-6.321-1.948-9.621
				c0.952-2.119,2.648-3.815,4.767-4.767c3.312-1.31,7.085-0.549,9.63,1.943c1.657,1.626,2.581,3.856,2.56,6.177
				C42.205,310.735,41.286,312.987,39.64,314.658L39.64,314.658z M39.64,209.524L39.64,209.524
				c-1.618,1.681-3.848,2.636-6.181,2.647c-1.185-0.002-2.358-0.243-3.448-0.707c-1.072-0.429-2.035-1.092-2.819-1.94
				c-1.684-1.616-2.639-3.847-2.647-6.181c0.016-2.644,1.21-5.143,3.258-6.816c2.047-1.673,4.734-2.346,7.329-1.835
				c0.571,0.104,1.133,0.251,1.681,0.44c0.518,0.262,1.019,0.557,1.5,0.884c0.482,0.302,0.927,0.657,1.328,1.06
				c1.645,1.671,2.565,3.923,2.56,6.268C42.221,205.665,41.297,207.896,39.64,209.524z M59.942,363.654
				c-2.995,3.055-7.734,3.562-11.309,1.212s-4.986-6.902-3.368-10.863s5.812-6.223,10.01-5.399c4.198,0.824,7.226,4.504,7.226,8.782
				C62.465,359.723,61.552,361.96,59.942,363.654z M92.157,405.671c-3.44,3.415-8.994,3.404-12.42-0.024s-3.435-8.982-0.019-12.42
				c3.485-3.313,8.955-3.313,12.44,0C95.571,396.672,95.571,402.225,92.157,405.671z M134.27,437.981
				c-0.845,0.797-1.834,1.426-2.914,1.854c-1.061,0.453-2.2,0.693-3.353,0.707c-2.341-0.015-4.586-0.932-6.268-2.56
				c-1.614-1.691-2.529-3.93-2.56-6.268c-0.033-1.158,0.21-2.307,0.707-3.353c0.404-1.092,1.036-2.085,1.854-2.914
				c0.417-0.381,0.858-0.735,1.319-1.06c0.494-0.334,1.03-0.601,1.594-0.793c0.498-0.257,1.033-0.436,1.586-0.53
				c2.907-0.581,5.914,0.311,8.035,2.383c0.818,0.829,1.45,1.822,1.854,2.914c0.453,1.061,0.693,2.2,0.707,3.353
				C136.795,434.05,135.881,436.288,134.27,437.981z M183.175,458.196L183.175,458.196c-1.618,1.68-3.848,2.635-6.181,2.646
				c-0.593-0.014-1.184-0.073-1.767-0.177c-0.526-0.177-1.06-0.353-1.672-0.53c-0.535-0.263-0.974-0.53-1.5-0.793
				c-0.465-0.355-0.909-0.738-1.328-1.147c-3.414-3.447-3.414-9.001,0-12.448c0.419-0.409,0.862-0.792,1.328-1.147
				c0.526-0.267,0.966-0.53,1.5-0.793c0.549-0.178,1.107-0.326,1.672-0.444c2.595-0.513,5.284,0.159,7.333,1.832
				c2.049,1.673,3.245,4.174,3.261,6.819C185.81,454.349,184.855,456.578,183.175,458.196z M238.166,460.58L238.166,460.58
				c-0.079,0.584-0.257,1.151-0.526,1.676c-0.176,0.542-0.445,1.049-0.793,1.5c-0.353,0.53-0.707,0.97-1.06,1.414
				c-1.693,1.61-3.931,2.524-6.267,2.561c-2.34-0.017-4.585-0.933-6.268-2.56c-0.401-0.434-0.756-0.908-1.06-1.414
				c-0.352-0.449-0.62-0.957-0.793-1.5c-0.268-0.526-0.448-1.093-0.535-1.677c-0.1-0.554-0.157-1.114-0.172-1.677
				c-0.033-1.159,0.21-2.31,0.707-3.358c0.448-1.068,1.075-2.052,1.854-2.909c3.539-3.267,8.995-3.267,12.534,0
				c0.779,0.857,1.406,1.841,1.854,2.909c0.453,1.062,0.693,2.203,0.706,3.358C238.334,459.466,238.273,460.027,238.166,460.58z
				 M229.52,432.42c-0.326,0.007-0.652-0.022-0.971-0.088h-0.971c-97.117-1.046-175.143-80.353-174.609-177.474
				c0.534-97.121,79.429-175.564,176.551-175.542c0.265,0,1.148,0.088,1.412,0.088h0.53c11.843,0.085,23.646,1.386,35.223,3.884
				c80.012,17.235,137.691,87.197,139.352,169.027s-53.132,154.075-132.378,174.542c-2.295,0.618-3.708,0.971-5.208,1.324
				C255.668,431.021,242.612,432.442,229.52,432.42z M273.925,455.369c-0.457-1.059-0.697-2.2-0.707-3.353
				c0.015-0.591,0.072-1.18,0.172-1.763c0.139-0.572,0.317-1.134,0.534-1.681c0.228-0.518,0.493-1.02,0.793-1.5
				c0.358-0.461,0.741-0.903,1.147-1.323c1.632-1.685,3.878-2.637,6.224-2.637s4.592,0.951,6.224,2.637
				c1.673,1.652,2.598,3.917,2.56,6.268c0.016,1.148-0.195,2.287-0.62,3.353v-0.001c-0.493,1.039-1.148,1.993-1.94,2.828
				c-2.49,2.593-6.329,3.366-9.629,1.94C276.562,459.19,274.867,457.491,273.925,455.369z"/>
		</g>
	</g>
</g>
<g>
</g>
<g>
</g>
<g>
</g>
<g>
</g>
<g>
</g>
<g>
</g>
<g>
</g>
<g>
</g>
<g>
</g>
<g>
</g>
<g>
</g>
<g>
</g>
<g>
</g>
<g>
</g>
<g>
</g>
</svg>
