<svg xmlns="http://www.w3.org/2000/svg" height="934pt" version="1.1" viewBox="0 0 934 934.99924" width="934pt">
<g id="surface1">
<path d="M 873.140625 420.765625 L 841.980469 420.765625 L 841.980469 171.4375 C 841.980469 162.824219 835 155.855469 826.394531 155.855469 L 732.007812 155.855469 L 701.019531 57.679688 C 699.71875 53.582031 696.796875 50.207031 692.945312 48.335938 C 689.078125 46.460938 684.613281 46.277344 680.597656 47.804688 L 553.695312 96.167969 L 496.695312 7.207031 C 494.453125 3.703125 490.902344 1.234375 486.828125 0.371094 C 482.765625 -0.542969 478.496094 0.25 475.039062 2.558594 L 241.074219 155.855469 L 109.578125 155.855469 C 49.367188 155.921875 0.574219 204.722656 0.5 264.933594 L 0.5 825.917969 C 0.574219 886.128906 49.367188 934.929688 109.578125 935 L 826.394531 935 C 835 935 841.980469 928.019531 841.980469 919.414062 L 841.980469 732.417969 L 873.140625 732.417969 C 907.570312 732.417969 935.476562 704.511719 935.476562 670.09375 L 935.476562 483.097656 C 935.476562 448.664062 907.570312 420.765625 873.140625 420.765625 Z M 873.140625 451.929688 C 890.355469 451.929688 904.308594 465.875 904.308594 483.097656 C 904.308594 500.308594 890.355469 514.257812 873.140625 514.257812 L 841.980469 514.257812 L 841.980469 451.929688 Z M 810.808594 187.023438 L 810.808594 342.847656 L 791.070312 342.847656 L 741.859375 187.023438 Z M 758.398438 342.847656 L 712.972656 342.847656 L 669.769531 213.257812 C 667.652344 206.894531 661.695312 202.59375 654.984375 202.597656 C 639.15625 202.648438 623.960938 196.359375 612.800781 185.136719 L 603.664062 176 C 599.367188 171.699219 592.953125 170.289062 587.242188 172.398438 L 126.195312 342.847656 L 109.578125 342.847656 C 88.800781 342.84375 68.886719 334.523438 54.296875 319.734375 L 676.277344 82.878906 Z M 680.125 342.847656 L 216.046875 342.847656 L 588.699219 205.089844 L 590.761719 207.167969 C 604.960938 221.445312 623.535156 230.5625 643.515625 233.042969 Z M 478.898438 37.28125 L 523.882812 107.542969 L 160.433594 245.953125 Z M 109.578125 187.023438 L 193.5 187.023438 L 36.207031 290.078125 C 33.304688 282.011719 31.765625 273.507812 31.667969 264.933594 C 31.722656 221.925781 66.574219 187.066406 109.578125 187.023438 Z M 810.808594 903.828125 L 109.578125 903.828125 C 66.574219 903.777344 31.722656 868.921875 31.667969 825.917969 L 31.667969 341.289062 C 31.816406 341.425781 31.976562 341.554688 32.117188 341.710938 C 33.335938 342.925781 34.625 344.042969 35.894531 345.199219 C 37.152344 346.351562 38.507812 347.671875 39.894531 348.828125 C 41.285156 349.984375 42.625 350.914062 43.992188 351.945312 C 45.363281 352.976562 46.832031 354.15625 48.324219 355.195312 C 49.820312 356.214844 51.269531 357.007812 52.738281 357.917969 C 54.207031 358.824219 55.769531 359.847656 57.410156 360.722656 C 59.050781 361.589844 60.605469 362.277344 62.210938 363.074219 C 63.816406 363.863281 65.332031 364.632812 66.980469 365.378906 C 68.632812 366.125 70.523438 366.703125 72.292969 367.339844 C 74.070312 367.980469 75.410156 368.589844 77.050781 369.082031 C 79.007812 369.710938 81.027344 370.152344 83.039062 370.644531 C 84.601562 371.015625 86.023438 371.492188 87.546875 371.800781 C 89.839844 372.28125 92.222656 372.558594 94.546875 372.890625 C 95.851562 373.066406 97.121094 373.339844 98.445312 373.480469 C 102.140625 373.847656 105.859375 374.023438 109.578125 374.019531 L 129.847656 374.019531 L 130.070312 374.613281 L 131.738281 374.019531 L 810.808594 374.019531 L 810.808594 514.257812 L 639.398438 514.257812 C 579.164062 514.257812 530.320312 563.09375 530.320312 623.339844 C 530.320312 683.582031 579.164062 732.417969 639.398438 732.417969 L 810.808594 732.417969 Z M 904.308594 670.09375 C 904.308594 687.304688 890.355469 701.253906 873.140625 701.253906 L 639.398438 701.253906 C 596.371094 701.253906 561.488281 666.371094 561.488281 623.339844 C 561.488281 580.304688 596.371094 545.429688 639.398438 545.429688 L 873.140625 545.429688 C 876.90625 545.390625 880.640625 545.007812 884.335938 544.289062 C 885.21875 544.136719 886.097656 543.960938 886.96875 543.75 C 890.492188 542.988281 893.945312 541.910156 897.28125 540.550781 L 897.8125 540.296875 C 900.042969 539.351562 902.207031 538.257812 904.308594 537.058594 Z M 904.308594 670.09375 " style=" stroke:none;fill-rule:nonzero;fill:rgb(0%,0%,0%);fill-opacity:1;" />
<path d="M 336.65625 420.765625 L 398.992188 420.765625 L 398.992188 451.929688 L 336.65625 451.929688 Z M 336.65625 420.765625 " style=" stroke:none;fill-rule:nonzero;fill:rgb(0%,0%,0%);fill-opacity:1;" />
<path d="M 212 420.765625 L 274.328125 420.765625 L 274.328125 451.929688 L 212 451.929688 Z M 212 420.765625 " style=" stroke:none;fill-rule:nonzero;fill:rgb(0%,0%,0%);fill-opacity:1;" />
<path d="M 710.648438 420.765625 L 764.058594 420.765625 L 764.058594 451.929688 L 710.648438 451.929688 Z M 710.648438 420.765625 " style=" stroke:none;fill-rule:nonzero;fill:rgb(0%,0%,0%);fill-opacity:1;" />
<path d="M 585.988281 420.765625 L 648.316406 420.765625 L 648.316406 451.929688 L 585.988281 451.929688 Z M 585.988281 420.765625 " style=" stroke:none;fill-rule:nonzero;fill:rgb(0%,0%,0%);fill-opacity:1;" />
<path d="M 91.191406 418.582031 L 83.898438 448.8125 C 92.3125 450.847656 100.929688 451.898438 109.578125 451.929688 L 149.660156 451.929688 L 149.660156 420.765625 L 109.578125 420.765625 C 103.390625 420.75 97.21875 420.019531 91.191406 418.582031 Z M 91.191406 418.582031 " style=" stroke:none;fill-rule:nonzero;fill:rgb(0%,0%,0%);fill-opacity:1;" />
<path d="M 461.320312 420.765625 L 523.652344 420.765625 L 523.652344 451.929688 L 461.320312 451.929688 Z M 461.320312 420.765625 " style=" stroke:none;fill-rule:nonzero;fill:rgb(0%,0%,0%);fill-opacity:1;" />
<path d="M 91.191406 823.734375 L 83.898438 853.960938 C 92.3125 856 100.929688 857.054688 109.578125 857.085938 L 149.660156 857.085938 L 149.660156 825.917969 L 109.578125 825.917969 C 103.390625 825.898438 97.21875 825.179688 91.191406 823.734375 Z M 91.191406 823.734375 " style=" stroke:none;fill-rule:nonzero;fill:rgb(0%,0%,0%);fill-opacity:1;" />
<path d="M 710.648438 825.917969 L 764.058594 825.917969 L 764.058594 857.085938 L 710.648438 857.085938 Z M 710.648438 825.917969 " style=" stroke:none;fill-rule:nonzero;fill:rgb(0%,0%,0%);fill-opacity:1;" />
<path d="M 336.65625 825.917969 L 398.992188 825.917969 L 398.992188 857.085938 L 336.65625 857.085938 Z M 336.65625 825.917969 " style=" stroke:none;fill-rule:nonzero;fill:rgb(0%,0%,0%);fill-opacity:1;" />
<path d="M 585.988281 825.917969 L 648.316406 825.917969 L 648.316406 857.085938 L 585.988281 857.085938 Z M 585.988281 825.917969 " style=" stroke:none;fill-rule:nonzero;fill:rgb(0%,0%,0%);fill-opacity:1;" />
<path d="M 212 825.917969 L 274.328125 825.917969 L 274.328125 857.085938 L 212 857.085938 Z M 212 825.917969 " style=" stroke:none;fill-rule:nonzero;fill:rgb(0%,0%,0%);fill-opacity:1;" />
<path d="M 461.320312 825.917969 L 523.652344 825.917969 L 523.652344 857.085938 L 461.320312 857.085938 Z M 461.320312 825.917969 " style=" stroke:none;fill-rule:nonzero;fill:rgb(0%,0%,0%);fill-opacity:1;" />
<path d="M 639.398438 576.59375 C 613.582031 576.59375 592.648438 597.519531 592.648438 623.339844 C 592.648438 649.152344 613.582031 670.09375 639.398438 670.09375 C 665.214844 670.09375 686.144531 649.152344 686.144531 623.339844 C 686.144531 597.519531 665.214844 576.59375 639.398438 576.59375 Z M 639.398438 638.925781 C 630.796875 638.925781 623.816406 631.945312 623.816406 623.339844 C 623.816406 614.730469 630.796875 607.757812 639.398438 607.757812 C 648.003906 607.757812 654.984375 614.730469 654.984375 623.339844 C 654.984375 631.945312 648.003906 638.925781 639.398438 638.925781 Z M 639.398438 638.925781 " style=" stroke:none;fill-rule:nonzero;fill:rgb(0%,0%,0%);fill-opacity:1;" />
</g>
</svg>